<?xml version="1.0" encoding="UTF-8"?><svg id="Layer_2" xmlns="http://www.w3.org/2000/svg" viewBox="0 0 70.8 79.95"><defs><style>.cls-1{fill:#fff;}</style></defs><g id="Layer_1-2"><path id="path2" class="cls-1" d="M48.36,59.83c-.45,3.83-2.77,6.93-6.36,8.46-2.01,.85-4.7,1.31-6.86,1.18-3.32-.14-6.43-.96-9.33-2.42-1-.55-2.55-1.59-3.73-2.56-.29-.28-.34-.41-.13-.7,.09-.17,.3-.47,.73-1.1,.65-.92,.72-1.04,.79-1.16,.21-.3,.52-.32,.85-.09t.07,.07s.04,.05,.16,.14c.12,.09,.21,.14,.23,.19,3.11,2.44,6.73,3.82,10.39,3.96,5.08-.07,8.72-2.35,9.4-5.88,.69-3.84-2.33-7.19-8.25-9.06-1.86-.55-6.55-2.43-7.42-2.95-4.05-2.37-5.96-5.49-5.68-9.36,.41-5.34,5.38-9.32,11.65-9.35,2.78,0,5.59,.58,8.25,1.7,.96,.41,2.67,1.34,3.24,1.78,.34,.25,.41,.53,.2,.84-.07,.19-.28,.47-.63,1.07h0c-.52,.79-.54,.83-.63,1-.19,.29-.45,.31-.8,.11-2.85-1.94-6.06-2.9-9.56-2.97-4.36,.07-7.63,2.67-7.84,6.22-.04,3.2,2.34,5.52,7.51,7.28,10.51,3.39,14.52,7.34,13.76,13.6M35.4,4.68c6.83,0,12.41,6.48,12.69,14.61H22.73c.24-8.12,5.84-14.61,12.67-14.61m35.4,16.14c0-.85-.66-1.54-1.49-1.54h-16.45C52.45,8.57,44.78,0,35.4,0S18.37,8.57,17.96,19.29H1.5c-.83,.02-1.48,.69-1.48,1.54v.12h-.02l2.34,51.7c0,.14,.03,.28,.03,.45,0,.03,0,.04,0,.1v.08l.02,.03c.35,3.6,2.96,6.48,6.52,6.62v.03H61.36v-.03c3.61-.09,6.57-3.01,6.85-6.66h0l.02-.07v-.1c0-.11,.03-.17,.03-.28l2.55-51.92h0v-.07"/></g></svg>