<?xml version="1.0" encoding="UTF-8"?><svg id="Layer_2" xmlns="http://www.w3.org/2000/svg" viewBox="0 0 80 64.95"><defs><style>.cls-1{fill:#f9f9f9;}.cls-2{fill:#fcfcfc;}.cls-3{fill:#fff;}</style></defs><g id="Layer_1-2"><g id="g942"><g><path id="path69" class="cls-3" d="M40.02,64.95c-.57,0-1.13-.14-1.62-.42C34.16,62.08,2.82,42.43,1.64,41.83c-.9-.42-1.52-1.28-1.62-2.27V12c-.02-1.03,.49-2,1.35-2.56l.23-.13C4.62,7.43,14.77,1.23,16.38,.34c.37-.22,.79-.34,1.22-.34,.4,0,.8,.1,1.15,.29,0,0,14.2,9.26,16.38,10.08,1.52,.7,3.19,1.05,4.86,1.02,1.9,.04,3.78-.42,5.45-1.33,2.12-1.12,15.69-9.73,15.84-9.73,.34-.21,.74-.31,1.13-.31,.43,0,.85,.12,1.22,.34,1.85,1.02,14.43,8.72,14.96,9.06,.88,.53,1.42,1.5,1.41,2.53v27.56c-.1,.99-.72,1.85-1.62,2.27-1.18,.65-32.43,20.3-36.74,22.7-.49,.29-1.05,.45-1.62,.45"/><path id="path77" class="cls-1" d="M39.86,64.95h.16c.57,0,1.13-.14,1.62-.42,4.23-2.45,35.56-22.1,36.74-22.7,.91-.42,1.52-1.28,1.62-2.27V12c0-.47-.1-.93-.31-1.35l-39.84,21.87v32.43"/><path id="path968" class="cls-2" d="M39.72,64.56h-.16c-.56,0-1.12-.14-1.6-.42C33.77,61.72,2.78,42.28,1.6,41.69,.71,41.28,.1,40.42,0,39.44V12.17c0-.46,.1-.92,.3-1.33l39.41,21.64v32.08"/></g></g></g></svg>