<?xml version="1.0" encoding="UTF-8"?><svg id="Layer_2" xmlns="http://www.w3.org/2000/svg" viewBox="0 0 80 79.79"><defs><style>.cls-1{fill:#fff;}</style></defs><g id="Layer_1-2"><g><path class="cls-1" d="M18.56,48.66c-1.88,0-3.4,1.51-3.4,3.4v8.55c0,1.66,1.52,3.2,3.4,3.2s3.41-1.54,3.41-3.2v-8.55c0-1.88-1.51-3.4-3.41-3.4Z"/><path class="cls-1" d="M61.45,48.66c-1.88,0-3.41,1.51-3.41,3.4v8.55c0,1.66,1.53,3.2,3.41,3.2s3.41-1.54,3.41-3.2v-8.55c0-1.88-1.54-3.4-3.41-3.4Z"/><path class="cls-1" d="M0,0V79.79H80V0H0ZM58.9,10.89h5.12v25.21h-5.12V10.89ZM26.88,60.6c0,2.18-.97,4.3-2.33,5.86l2.33,7.57h-4.92l-1.75-5.26c-.53,.1-1.08,.16-1.65,.16-4.7,0-8.4-3.83-8.4-8.33v-8.55c0-4.56,3.7-8.33,8.4-8.33s8.33,3.77,8.33,8.33v8.55Zm0-32.88c0,4.73-3.61,8.38-8.32,8.38s-8.4-3.65-8.4-8.38V10.89h5V27.72c0,1.91,1.52,3.45,3.41,3.45s3.4-1.54,3.4-3.45V10.89h4.92V27.72Zm23.67,41.21h-16.83v-25.2h5.1v20.07h11.73v5.12Zm0-32.84h-5.12l-6.62-14.44v14.44h-5.1V10.88h5.1l6.62,14.42V10.88h5.12v25.21Zm19.22,24.51c0,4.5-3.62,8.33-8.33,8.33s-8.33-3.83-8.33-8.33v-8.55c0-4.56,3.62-8.33,8.33-8.33s8.33,3.77,8.33,8.33v8.55Z"/></g></g></svg>